# xmcd CD database file generated by MAGIX_Freedb v0.9beta0
# 
# Track frame offsets:
#      150
#      4535
#      19617
#      40816
#      63243
#      76653
#      103549
#      122618
#      141411
#      156630
#      174970
#      199405
#      212638
#      235859
#      260015
#      271412
#      281847
#      305489
#      317200
#      329041
# 
# Disc length: 4641 seconds
# 
# Revision: 1 
# Processed by: cddbd v1.4PL0 Copyright (c) Steve Scherf et al.
# Submitted via: MAGIX_Freedb v0.9beta0
# 
DISCID=22121f14
DTITLE=The Discoboys 2.1
DYEAR=1900
DGENRE=
TTITLE0=The Discoboys Intro
TTITLE1=Tonka-Never
TTITLE2=Grant Nelson-Switch
TTITLE3=Milk and Sugar-Lift me up
TTITLE4=Future Funk-Road Track
TTITLE5=Jacky S.-Knock on wood
TTITLE6=DB Boulevard-Point of view
TTITLE7=Fused-The good and the bad
TTITLE8=Telex-Moswkow Diskow
TTITLE9=Junior Jack-Thrill me
TTITLE10=Kelis-Young fresh n' new
TTITLE11=Deejay Punk-Roc-My Beatbox
TTITLE12=Par-T-One vs. INXS-I'm so crazy
TTITLE13=New order-Blue monday
TTITLE14=Trans-X-Living on video
TTITLE15=Groovemaster K and 88 Keys-Get up
TTITLE16=M1-Electronic funk
TTITLE17=We in music-Now that love has gone
TTITLE18=Yello-Bostich
TTITLE19=Time bandits-I'm only shooting love
EXTD=
EXTT0=
EXTT1=
EXTT2=
EXTT3=
EXTT4=
EXTT5=
EXTT6=
EXTT7=
EXTT8=
EXTT9=
EXTT10=
EXTT11=
EXTT12=
EXTT13=
EXTT14=
EXTT15=
EXTT16=
EXTT17=
EXTT18=
EXTT19=
PLAYORDER=
